<svg width="17" height="14" viewBox="0 0 17 14" fill="none" xmlns="http://www.w3.org/2000/svg">
<path d="M0.80525 0.895998L3.70125 0.895998C3.94658 0.895998 4.14925 0.959998 4.30925 1.088C4.46925 1.216 4.59725 1.376 4.69325 1.568L7.73325 7.712C8.07458 8.40533 8.33592 9.03467 8.51725 9.6C8.60258 9.29067 8.70925 8.98133 8.83725 8.672C8.95458 8.37333 9.08792 8.05333 9.23725 7.712L12.1173 1.568C12.2026 1.376 12.3306 1.216 12.5013 1.088C12.6719 0.959999 12.8906 0.895999 13.1573 0.895999L16.1973 0.895999L9.84525 13.136L7.28525 13.136L0.80525 0.895998Z" fill="#C40000"/>
</svg>
